<svg width="500" height="500" viewBox="0 0 500 500" fill="none" xmlns="http://www.w3.org/2000/svg">
<g opacity="1">
<path d="M151.559 74.1234C143.717 78.6509 135.465 91.1362 134.508 118.37C134.053 131.307 123.197 141.425 110.261 140.97C97.3247 140.515 87.2066 129.659 87.6613 116.723C88.8353 83.3353 99.3938 50.1144 128.122 33.5284C156.931 16.8954 191.089 24.4486 220.665 40.2272C232.086 46.32 236.405 60.5175 230.312 71.9378C224.219 83.3584 210.022 87.6775 198.601 81.585C174.431 68.6906 159.424 69.5822 151.559 74.1234ZM277.231 114.776C287.199 106.518 301.973 107.904 310.232 117.872C327.556 138.782 344.175 162.627 359.259 188.756C391.769 245.06 411.812 302.745 417.216 351.131C419.913 375.284 419.087 398.269 413.447 417.981C407.763 437.844 396.691 455.822 378.122 466.541C355.656 479.513 329.716 477.672 305.973 469.028C282.146 460.353 257.623 443.925 234.246 422.588C224.685 413.859 224.01 399.034 232.736 389.475C241.463 379.916 256.287 379.238 265.848 387.966C286.445 406.766 305.802 419.078 322.009 424.981C338.303 430.912 348.553 429.488 354.684 425.947C359.822 422.981 364.991 416.938 368.381 405.084C371.816 393.084 372.9 376.653 370.631 356.331C366.1 315.766 348.722 264.252 318.666 212.193C304.841 188.249 289.713 166.58 274.135 147.777C265.877 137.809 267.263 123.034 277.231 114.776Z" fill="#598C6B" fill-opacity="1"/>
<path d="M453.125 256.424C453.125 247.369 446.438 233.98 423.331 219.533C412.356 212.672 409.022 198.211 415.884 187.236C422.747 176.26 437.206 172.925 448.181 179.787C476.509 197.498 500 223.252 500 256.424C500 289.69 476.381 315.494 447.928 333.219C436.941 340.062 422.484 336.706 415.641 325.719C408.797 314.731 412.156 300.277 423.141 293.433C446.394 278.948 453.125 265.506 453.125 256.424ZM355.081 344.931C357.25 357.694 348.663 369.797 335.9 371.966C309.131 376.512 280.171 378.981 250 378.981C184.986 378.981 125.006 367.5 80.4019 347.984C58.135 338.244 38.6434 326.038 24.3915 311.297C10.0305 296.443 0 277.864 0 256.424C0 230.484 14.5651 208.937 33.9212 192.699C53.3475 176.402 79.8347 163.378 110.004 153.801C122.342 149.885 135.518 156.712 139.434 169.05C143.35 181.387 136.523 194.563 124.186 198.48C97.6044 206.917 77.2625 217.524 64.0481 228.61C50.7631 239.755 46.875 249.343 46.875 256.424C46.875 262.355 49.5238 269.853 58.0922 278.716C66.7697 287.692 80.4575 296.845 99.1903 305.041C136.586 321.4 189.887 332.106 250 332.106C277.648 332.106 303.979 329.841 328.05 325.75C340.812 323.584 352.916 332.172 355.081 344.931Z" fill="#598C6B" fill-opacity="1"/>
<path d="M152.247 425.947C160.089 430.475 175.028 431.378 199.092 418.591C210.523 412.516 224.713 416.859 230.787 428.287C236.862 439.719 232.519 453.909 221.089 459.984C191.587 475.659 157.538 483.128 128.81 466.541C100.001 449.909 89.4631 416.55 88.3397 383.047C87.9059 370.109 98.0416 359.272 110.978 358.837C123.915 358.403 134.755 368.537 135.188 381.475C136.107 408.856 144.382 421.406 152.247 425.947ZM124.618 296.785C112.482 292.282 106.295 278.793 110.799 266.657C120.246 241.2 132.586 214.884 147.671 188.756C180.178 132.452 220.113 86.2488 259.314 57.3778C278.885 42.9647 299.2 32.1872 319.094 27.2157C339.137 22.2059 360.244 22.8082 378.809 33.5284C401.275 46.4984 412.653 69.8856 417.037 94.7678C421.437 119.74 419.475 149.19 412.681 180.106C409.903 192.749 397.403 200.746 384.762 197.969C372.119 195.192 364.122 182.691 366.9 170.048C372.881 142.81 373.866 119.89 370.875 102.902C367.866 85.825 361.503 77.6637 355.372 74.1234C350.237 71.1578 342.419 69.7028 330.459 72.6919C318.347 75.7191 303.576 82.9962 287.112 95.1212C254.245 119.327 218.322 160.134 188.266 212.193C174.442 236.137 163.24 260.073 154.745 282.966C150.242 295.101 136.753 301.288 124.618 296.785Z" fill="#598C6B" fill-opacity="1"/>
<path d="M295.602 252.068C295.602 275.529 276.582 294.549 253.121 294.549C229.66 294.549 210.641 275.529 210.641 252.068C210.641 228.607 229.66 209.588 253.121 209.588C276.582 209.588 295.602 228.607 295.602 252.068Z" fill="#598C6B" fill-opacity="1"/>
</g>
</svg>
